<mxfile host="app.diagrams.net" modified="2023-05-23T18:59:13.683Z" agent="Mozilla/5.0 (Windows NT 10.0; Win64; x64) AppleWebKit/537.36 (KHTML, like Gecko) Chrome/113.0.0.0 Safari/537.36 Edg/113.0.1774.50" version="21.3.3" etag="Gsjmam2on1p8xlPtaqnj" type="github">
  <diagram name="PÃ¡gina-1" id="Q-U-CiQJ96hPpbyycA-Z">
    <mxGraphModel>
      <root>
        <mxCell id="0" />
        <mxCell id="1" parent="0" />
      </root>
    </mxGraphModel>
  </diagram>
</mxfile>
